<svg xmlns="http://www.w3.org/2000/svg" data-name="Layer 1" viewBox="0 0 32 32"><path d="M0,17.5a.5.5,0,0,0,.5.5h5a.5.5,0,0,0,.473-.661l-1.7-5A.5.5,0,0,0,3.8,12H.5a.5.5,0,0,0,0,1H3.442L4.8,17H.5A.5.5,0,0,0,0,17.5ZM12.5,17H9.886a1.507,1.507,0,0,1-1.4-.974L6.7,11.271A3.516,3.516,0,0,0,3.421,9H.5a.5.5,0,0,0,0,1H3.421a2.511,2.511,0,0,1,2.341,1.623l1.783,4.755A2.513,2.513,0,0,0,9.886,18H12.5a.5.5,0,0,1,.5.5V19H11.5a1.5,1.5,0,0,0,0,3H13v4.5a.5.5,0,0,1-.5.5H9.949a4.475,4.475,0,0,0-8.9,0H.5a.5.5,0,0,0,0,1h.551a4.475,4.475,0,0,0,8.9,0H12.5A1.5,1.5,0,0,0,14,26.5v-8A1.5,1.5,0,0,0,12.5,17Zm-7,14A3.5,3.5,0,0,1,2,27.5v0A3.5,3.5,0,1,1,5.5,31ZM13,21H11.5a.5.5,0,0,1,0-1H13Zm3.552,1.562A1.456,1.456,0,0,1,15.5,23a.5.5,0,0,0,0,1A2.514,2.514,0,0,0,18,21.5v-1a.5.5,0,0,0-.5-.5,1.5,1.5,0,0,1,0-3,.5.5,0,0,0,0-1,2.481,2.481,0,0,0-.421.043,1.461,1.461,0,0,1,2.014-.907,2.464,2.464,0,0,0,.326.751.5.5,0,0,0,.832-.556A1.5,1.5,0,0,1,21.5,13a.5.5,0,0,0,0-1,2.474,2.474,0,0,0-.387.039,1.432,1.432,0,0,1,.391-1.648,3.51,3.51,0,0,0,.38.313.5.5,0,0,0,.559-.83A2.5,2.5,0,1,1,25.23,5.725a.5.5,0,0,0,.559-.83,3.491,3.491,0,0,0-4.925,4.738,2.387,2.387,0,0,0-.682,2.753,2.5,2.5,0,0,0-1.139,1.686A2.455,2.455,0,0,0,16,16.5l0,.011a2.491,2.491,0,0,0,1,4.439v.55A1.462,1.462,0,0,1,16.552,22.562ZM28.5,8a.5.5,0,0,0,0,1,2.5,2.5,0,0,1,0,5,.5.5,0,0,0,0,1,1.436,1.436,0,0,1-.887,1.422,2.476,2.476,0,0,0-.786-.7.5.5,0,0,0-.473.882,1.518,1.518,0,0,1,.633.647,1.467,1.467,0,0,1,.146.861,1.5,1.5,0,0,1-2.4,1,1.578,1.578,0,0,1-.395-.465.5.5,0,1,0-.873.486,2.555,2.555,0,0,0,.451.572v.01a1.534,1.534,0,0,1-1.68,1.308.63.63,0,0,0-.145.007,2.5,2.5,0,0,0-2.5,2.51A2.468,2.468,0,0,1,17.12,26H15.5a.5.5,0,0,0,0,1h1.62a3.471,3.471,0,0,0,3.47-3.47,1.5,1.5,0,0,1,1.5-1.5c.012,0,.048,0,.081-.008a2.5,2.5,0,0,0,2.638-1.758,2.481,2.481,0,0,0,.528.139,2.574,2.574,0,0,0,.311.02,2.461,2.461,0,0,0,2.411-3.094,2.454,2.454,0,0,0,1.427-1.942,2.412,2.412,0,0,0,.011-.548A3.49,3.49,0,0,0,28.5,8ZM5.5,26A1.5,1.5,0,1,0,7,27.5,1.5,1.5,0,0,0,5.5,26Zm0,2a.5.5,0,1,1,.5-.5A.5.5,0,0,1,5.5,28Z"/></svg>
